<svg xmlns:inkscape="http://www.inkscape.org/namespaces/inkscape" xmlns:sodipodi="http://sodipodi.sourceforge.net/DTD/sodipodi-0.dtd" xmlns="http://www.w3.org/2000/svg" xmlns:svg="http://www.w3.org/2000/svg" fill="#000000" height="50px" width="50px" version="1.1" id="Capa_1" viewBox="0 0 484.3 484.3" xml:space="preserve" sodipodi:docname="logoC.svg" inkscape:export-filename="logoC.png" inkscape:export-xdpi="96" inkscape:export-ydpi="96" inkscape:version="1.3.2 (091e20e, 2023-11-25, custom)"><defs id="defs3"/><sodipodi:namedview id="namedview3" pagecolor="#ffffff" bordercolor="#111111" borderopacity="1" inkscape:showpageshadow="0" inkscape:pageopacity="0" inkscape:pagecheckerboard="1" inkscape:deskcolor="#d1d1d1" showgrid="false" inkscape:zoom="1.02625" inkscape:cx="258.22168" inkscape:cy="371.74178" inkscape:window-width="1920" inkscape:window-height="1017" inkscape:window-x="-8" inkscape:window-y="-8" inkscape:window-maximized="1" inkscape:current-layer="Capa_1"/>
    <g id="g3" style="display:none;fill:#000000;fill-opacity:1;stroke-width:0.99987;stroke-dasharray:none">
      <g id="g2" style="display:inline;fill:#000000;fill-opacity:1;stroke-width:0.99987;stroke-dasharray:none">
        <path d="m 262.198,0 c -28.1,0 -55.1,6.1 -80.3,18 -32,14.9 -59.1,38.4 -78.4,68 -19.9,30.5 -30.4,65.8 -30.4,102.3 V 214 l -34,65 c -6.5,12.5 -6.8,25.3 -0.8,35.3 6,10 17.5,15.7 31.6,15.7 h 3.2 v 51.1 c 0,27.7 22.5,50.2 50.2,50.2 0.7,0 1.3,0 2,-0.1 l 34.9,-5.2 v 35.1 c 0,0.5 0,1.1 0.1,1.6 1,12.4 11,21.6 23.7,21.6 v 0 c 1.5,0 3,-0.1 4.6,-0.4 l 181.5,-32.2 c 13.2,-2.3 23.6,-14.7 23.6,-28.1 v -101 c 36.1,-35.3 56.6,-84 56.6,-134.5 C 450.298,84.4 365.898,0 262.198,0 Z m 108.8,306.8 c -2.8,2.6 -4.4,6.2 -4.4,9.9 v 106.7 c -0.1,0.5 -0.8,1.4 -1.3,1.6 l -178.2,31.5 -0.1,-46.5 c 0,-3.9 -1.7,-7.7 -4.7,-10.2 -2.5,-2.1 -5.6,-3.3 -8.8,-3.3 -0.7,0 -1.3,0 -2,0.1 l -49.3,7.3 c -12.4,-0.5 -22.3,-10.7 -22.3,-23.2 v -64.6 c 0,-7.5 -6,-13.5 -13.5,-13.5 h -16.5 c -5.1,0 -7.8,-1.4 -8.5,-2.6 -0.7,-1.2 -0.8,-4.3 1.6,-8.8 l 35.6,-67.9 c 1,-1.9 1.5,-4.1 1.5,-6.3 v -29 c 0,-62.4 36.6,-119.6 93.2,-145.9 h 0.1 c 21.5,-10 44.7,-15.1 68.8,-15.1 88.8,0 161.1,72.3 161.1,161.1 0,45 -19.1,88.3 -52.3,118.7 z" id="path1" style="display:inline;fill:#000000;fill-opacity:1;stroke-width:0.99987;stroke-dasharray:none"/>
        <path d="m 147.898,202.6 c -9.8,0 -17.8,8 -17.8,17.8 0,9.8 8,17.8 17.8,17.8 9.8,0 17.8,-8 17.8,-17.8 0,-9.8 -8,-17.8 -17.8,-17.8 z" id="path2" style="display:inline;fill:#000000;fill-opacity:1;stroke-width:0.99987;stroke-dasharray:none"/>
      </g>
    </g>
    <g id="g16" transform="translate(-5.0053858,3.3369239)" style="display:inline;fill:#000000;fill-opacity:1;fill-rule:evenodd;stroke-width:0.99987;stroke-dasharray:none"><path style="display:inline;fill:#000000;fill-opacity:1;fill-rule:evenodd;stroke-width:0.99987;stroke-dasharray:none" d="m 188.00092,428.59184 -0.17144,-25.24995 -1.65481,-2.81519 c -1.89066,-3.21644 -4.81381,-5.36169 -8.71116,-6.39298 -2.43137,-0.64338 -5.29287,-0.3285 -29.01356,3.19265 -25.57159,3.7959 -26.40955,3.8821 -29.61709,3.04663 -9.27543,-2.41594 -15.64617,-9.19652 -17.41781,-18.53831 -0.35548,-1.87447 -0.59961,-16.91332 -0.60736,-37.41488 -0.012,-31.8895 -0.0879,-34.44518 -1.08758,-36.64016 -1.38191,-3.03428 -5.26909,-6.53153 -8.14848,-7.33109 -1.23961,-0.34422 -7.03196,-0.62882 -12.87187,-0.63243 -11.56535,-0.007 -14.57173,-0.50325 -15.96849,-2.63499 -0.76411,-1.16617 -0.80172,-1.81845 -0.2279,-3.95249 0.37798,-1.4057 8.97069,-18.35014 19.0949,-37.6543 10.12422,-19.30416 18.64272,-35.62938 18.93,-36.27826 0.28729,-0.64888 0.70712,-12.32871 0.93296,-25.95517 0.30757,-18.55759 0.6537,-26.25583 1.37915,-30.67431 3.97039,-24.18202 11.82685,-44.93336 24.27328,-64.113282 25.62096,-39.481822 65.43333,-64.870157 113.33098,-72.271111 9.30969,-1.438496 35.77149,-1.440179 44.71675,-0.0028 17.69581,2.843385 32.57404,7.418143 47.19123,14.510366 16.56003,8.034879 29.21927,16.821785 41.91492,29.093553 51.08607,49.380424 64.03621,124.402394 32.37245,187.538114 -7.93551,15.82298 -16.66367,27.94099 -30.11048,41.80483 -3.9335,4.05549 -7.65166,8.30271 -8.26258,9.43824 -1.06176,1.97351 -1.11816,4.51634 -1.27821,57.62837 -0.15641,51.90656 -0.23407,55.58339 -1.17978,55.86213 -0.55679,0.16411 -40.29905,7.22801 -88.31612,15.69755 -48.01708,8.46955 -87.75753,15.53195 -88.31212,15.69423 -0.93822,0.27452 -1.02026,-1.4608 -1.17978,-24.95492 z M 329.03929,251.66297 c 2.77764,-1.94554 3.01839,-3.67653 3.01839,-21.70198 V 213.1581 l 15.23441,-0.1754 15.23442,-0.17541 2.45726,-1.62723 c 1.35149,-0.89498 3.18952,-2.73368 4.08449,-4.08599 l 1.62724,-2.45876 0.17512,-63.45645 c 0.1231,-44.60565 -0.0162,-64.116505 -0.46903,-65.67833 -0.81161,-2.799521 -3.64527,-6.060137 -6.55795,-7.546078 -2.19449,-1.119545 -4.37878,-1.145025 -98.14407,-1.145025 -105.81942,0 -97.92526,-0.298855 -101.96441,3.860119 -4.09186,4.213253 -3.92547,1.283062 -3.92547,69.132134 0,42.52748 0.19706,61.76293 0.65123,63.56658 0.81827,3.24965 4.15597,7.20269 7.27936,8.62137 2.26961,1.03089 5.26296,1.08736 58.28146,1.09966 l 55.88896,0.013 19.99276,19.76133 19.99276,19.76133 h 2.88486 c 1.71236,0 3.44303,-0.39097 4.25821,-0.96193 z" id="path13"/><path style="fill:#000000;fill-opacity:1;fill-rule:evenodd;stroke-width:1.65165;stroke-dasharray:none" d="m 416.92708,108.73059 c -47.71553,0.71905 -95.71176,-1.15182 -143.2408,2.37658 -7.71651,5.92239 -10.95656,15.19645 -10.32722,24.68898 -0.77779,67.55342 -0.30118,135.21295 0.34989,202.70645 4.2114,6.85699 10.04265,13.7408 18.90514,13.38051 47.30549,2.66288 94.7688,0.6832 142.13444,1.30693 13.53189,0 27.06378,0 40.59567,0 22.32871,21.96829 44.01177,44.98481 66.74342,66.29934 6.57378,-0.53286 16.00241,-1.88973 16.36423,-10.29762 2.78105,-18.51494 1.32297,-37.35175 1.79523,-56.00172 16.89062,-0.2213 33.95665,0.43721 50.73986,-0.32298 4.86511,-6.3471 15.22348,-10.49976 12.65266,-19.99773 -0.19796,-70.11224 0.39499,-140.37478 -0.29607,-210.39333 -5.81643,-5.68813 -10.26017,-14.58296 -19.81209,-12.46816 -58.81697,-2.00241 -117.75428,-0.97786 -176.60436,-1.27725 z" id="path16" transform="scale(0.605375)" inkscape:label="path16"/></g><g style="display:inline;fill:#000000;fill-opacity:1;fill-rule:evenodd;stroke-width:1.32091;stroke-dasharray:none" id="g5" transform="matrix(-0.33067334,0.32013069,0.2835037,0.37339436,263.70623,-22.081609)" inkscape:label="g5"><g style="display:inline;fill:#000000;fill-opacity:1;fill-rule:evenodd;stroke-width:0.107615;stroke-dasharray:none" id="g4" transform="matrix(9.3183884,-7.9891463,7.9891463,9.3183884,8.5075816,263.28012)"><path id="path1-7" style="display:none;fill:#000000;fill-opacity:1;fill-rule:evenodd;stroke-width:0.107615;stroke-dasharray:none" d="m 30.001002,1.9880533 c 1.104988,0 1.999986,0.895932 1.999986,1.9999254 V 22.034916 c 0,1.104994 -0.894998,2.000104 -1.999986,2.000104 H 13.469026 l -5.7820268,5.692013 c -0.1909988,0.188 -0.4430107,0.286901 -0.7010095,0.286901 -0.1289988,0 -0.2609597,-0.02592 -0.3859591,-0.07792 -0.3719976,-0.155 -0.6139443,-0.518041 -0.6139443,-0.922041 V 24.03502 H 1.9999364 c -1.1049934,0 -1.999986334702,-0.89511 -1.999986334702,-2.000104 l -1.1703e-8,-18.0469373 C -4.9946405e-5,2.8829859 0.89494288,1.9880533 1.9999364,1.9880533 H 29.999924 Z m -0.002,1.9990338 -27.9999882,10e-8 V 22.034025 h 5.9859567 l 10e-8,4.590948 4.6640014,-4.590948 17.35003,-1e-6 z M 6.8186809,17.357309 c 0.011837,-1.59e-4 0.023743,2.65e-4 0.035724,0.0012 0.00114,9.3e-5 0.00227,4.31e-4 0.00341,5.35e-4 4.218e-4,0.0046 7.45e-5,0.0092 5.385e-4,0.01373 -0.00788,-0.0011 -0.019717,-0.0033 -0.029261,-0.005 -0.00444,-0.0028 -0.00871,-0.0072 -0.013105,-0.01034 9.043e-4,-2e-5 0.00179,-1.66e-4 0.00269,-1.78e-4 z m 6.8208851,0.603579 c 0.04975,0.01732 0.08202,0.03376 0.01113,0.03013 -0.0038,-0.01011 -0.0073,-0.02006 -0.01113,-0.03013 z"/></g><text xml:space="preserve" style="font-size:161.602px;display:inline;fill:#000000;fill-opacity:1;fill-rule:evenodd;stroke-width:1.32091;stroke-dasharray:none" x="-202.89963" y="374.96271" id="text13" transform="matrix(-0.68427035,0.5866611,0.72213583,0.84228551,0,0)"><tspan id="tspan13" style="font-style:normal;font-variant:normal;font-weight:normal;font-stretch:normal;font-size:161.602px;font-family:Constantia;-inkscape-font-specification:Constantia;fill:#000000;fill-opacity:1;fill-rule:evenodd;stroke-width:1.32091;stroke-dasharray:none" x="-202.89963" y="374.96271" sodipodi:role="line">AAH</tspan></text></g><g style="display:inline;fill:#ffffff" id="g26" transform="matrix(-4.211955,0,0,4.211955,324.27374,70.072322)"><path id="path1-8" style="display:inline;fill:#ffffff" d="m 30.001021,1.9880404 c 1.104997,0 1.999922,0.895925 1.999922,1.9999217 V 22.034978 c 0,1.104994 -0.894925,1.999921 -1.999922,1.999921 H 13.469079 l -5.7820273,5.692164 c -0.1909994,0.188 -0.4431407,0.286943 -0.7011398,0.286943 -0.1289997,0 -0.260896,-0.02609 -0.3858954,-0.07809 -0.3719991,-0.155 -0.6139621,-0.517979 -0.6139621,-0.921976 V 24.034899 H 2.000052 c -1.10499661,0 -2.000128222538,-0.894927 -2.000128222538,-1.999921 V 3.9879621 C -7.6222538e-5,2.8829654 0.89505539,1.9880404 2.000052,1.9880404 h 27.999936 z m -0.0021,1.9988888 H 1.9990191 V 22.033945 h 5.985924 v 4.591081 l 4.6640049,-4.591081 h 17.350007 z"/></g><path style="display:inline;fill:#ffffff;fill-opacity:1;fill-rule:evenodd;stroke-width:0.506986;stroke-dasharray:none" d="m 197.50264,86.468552 c -0.26075,10.91096 -0.0367,21.906008 -0.11151,32.849238 0,14.52993 0,29.05985 0,43.58977 1.16131,1.14635 3.49445,0.16341 5.09417,0.48997 22.80059,8.9e-4 45.60118,0.001 68.40177,0.002 6.39838,6.39272 12.79672,12.78547 19.19503,19.17825 1.74028,-0.0489 0.45183,-3.3098 0.87234,-4.63959 0.0406,-4.84682 0.0812,-9.69364 0.12168,-14.54046 8.32862,0 16.65724,0 24.98587,0 1.14581,-1.16196 0.15681,-3.49516 0.48036,-5.09536 -0.0488,-23.78922 -0.0976,-47.57843 -0.14643,-71.367638 -1.16298,-1.14432 -3.49383,-0.16674 -5.09357,-0.49464 -37.80694,-0.0494 -75.61387,-0.0992 -113.42081,-0.14925 l -0.27781,0.13055 z m 26.88216,11.64999 c 3.61727,13.312398 6.87321,26.728768 10.62241,40.000998 0.38346,1.28838 1.6145,2.2025 2.42149,3.01382 -0.33246,1.57317 -3.08865,0.3145 -4.41611,0.71824 -1.42991,-0.12907 -3.34274,0.24239 -4.53542,-0.23202 0.97474,-0.90418 3.09581,-1.04984 2.72964,-2.87413 -0.70837,-4.45144 -1.85086,-8.91372 -3.15476,-13.18331 -3.53958,-0.25032 -7.28363,-0.35976 -10.89154,-0.12618 -1.68927,0.44978 -1.39597,2.83441 -2.07059,4.10231 -0.72673,3.26996 -2.16729,6.50803 -2.12189,9.88584 0.25018,1.32464 2.37964,1.39345 2.72724,2.31837 -2.86211,0.12452 -5.96926,0.27258 -8.70812,-0.0701 1.03034,-0.99336 2.89845,-1.00236 3.34176,-2.62653 3.12665,-8.17147 5.19869,-16.71199 7.85738,-25.04389 1.57276,-5.23011 3.14552,-10.46022 4.71829,-15.690328 0.45591,-0.0233 1.07582,-0.29859 1.48022,-0.19305 z m 31.39721,-0.0426 c 3.95094,13.742048 7.0816,27.756888 11.26929,41.436268 0.82367,1.13747 2.32956,1.35796 3.36394,2.19907 -3.48865,0.20774 -7.17928,0.25214 -10.57324,-0.0222 1.05615,-0.95678 3.55784,-1.40557 2.78119,-3.3452 -0.903,-4.18707 -1.59541,-8.50662 -3.12352,-12.50388 -1.69846,-1.05238 -3.9712,-0.27356 -5.86743,-0.49611 -1.95098,0.14896 -4.0166,-0.17693 -5.89588,0.27009 -1.1936,4.43212 -2.90191,8.82817 -3.36454,13.4186 -0.24655,1.76761 2.10883,1.61851 2.73204,2.70806 -2.31009,0.15049 -4.7036,0.20886 -6.98748,-0.0234 -0.31638,-0.7739 -0.14891,-1.06101 0.60792,-1.38191 2.15595,-1.74199 2.05053,-4.91689 3.13224,-7.28191 3.5843,-11.53225 7.01716,-23.11056 10.51478,-34.669348 0.46471,-0.1121 0.92358,-0.32165 1.41069,-0.30816 z m 22.49902,0.55337 c 1.62521,0.0931 3.56233,-0.17475 5.03182,0.19724 -0.9958,1.16141 -3.52443,1.03533 -2.90147,3.145058 0.0369,5.35286 -0.27863,10.7812 -0.0229,16.08718 2.71044,0.51531 5.80507,0.0634 8.65884,0.2158 2.87692,-0.12644 5.86625,0.24838 8.67575,-0.17866 0.2139,-5.74558 -0.0741,-11.57467 -0.0516,-17.35209 -0.43669,-0.974288 -2.56559,-1.146898 -2.7752,-2.003618 3.25017,-0.12435 6.56169,-0.28538 9.79146,0.10012 -0.97322,0.87217 -3.49275,1.288448 -3.31898,3.227248 -0.19956,12.32328 -0.29159,24.66174 0.045,36.98059 0.3047,1.54905 2.72437,1.78866 3.23684,2.69307 -3.23745,0.12266 -6.75764,0.27302 -9.84303,-0.0731 1.02068,-1.13969 3.48083,-1.07862 2.87414,-3.15946 -0.0365,-6.17144 0.27794,-12.41827 0.0233,-18.54283 -2.71046,-0.5139 -5.80421,-0.0632 -8.65765,-0.2152 -2.87651,0.12647 -5.86546,-0.24843 -8.67455,0.17866 -0.21308,6.56392 0.0729,13.21134 0.0504,19.80715 0.43414,0.97489 2.56977,1.14806 2.77401,2.00482 -3.22304,0.13312 -6.50081,0.2622 -9.70693,-0.0737 0.86418,-0.99932 3.48157,-1.06202 3.31058,-2.99104 0.15002,-12.19216 0.31486,-24.39677 -0.057,-36.5849 0.1832,-1.95261 -2.12495,-2.361998 -3.28421,-3.357948 1.60114,-0.1518 3.21527,-0.0799 4.8214,-0.10431 z" id="path33"/><path style="fill:#ffffff;fill-opacity:1;fill-rule:evenodd;stroke-width:0.506986;stroke-dasharray:none" d="m 253.75201,105.82006 c -1.91833,4.53725 -3.02174,9.43893 -4.43319,14.1703 0.002,1.06562 -1.30764,2.69467 -0.22813,3.48995 3.08589,0.45003 6.32938,0.54773 9.40657,0.0252 0.86325,-0.98818 -0.36252,-2.53926 -0.37381,-3.71774 -1.22134,-4.64499 -2.19394,-9.39612 -3.69338,-13.94611 -0.25517,-0.13076 -0.41663,-0.2259 -0.67806,-0.0216 z" id="path34"/><path style="fill:#ffffff;fill-opacity:1;fill-rule:evenodd;stroke-width:0.506986;stroke-dasharray:none" d="m 222.20133,105.60483 c -1.32121,2.70387 -1.79138,5.86866 -2.77341,8.74529 -0.71321,3.0004 -1.97321,5.97274 -2.31897,9.00729 1.64867,0.79455 3.76368,0.23899 5.5762,0.43928 1.44924,-0.0863 2.97431,0.13957 4.38134,-0.24444 0.61496,-1.3587 -0.52681,-3.01776 -0.60613,-4.45987 -1.16694,-4.46126 -2.05194,-9.04947 -3.6613,-13.36645 -0.14784,-0.23345 -0.38625,-0.1274 -0.59773,-0.1211 z" id="path35"/><text xml:space="preserve" style="font-style:normal;font-variant:normal;font-weight:normal;font-stretch:normal;font-size:84.3887px;font-family:Constantia;-inkscape-font-specification:Constantia;display:inline;fill:#ffffff;fill-opacity:1;fill-rule:evenodd;stroke:#ffffff;stroke-width:0.871128;stroke-dasharray:none;stroke-opacity:1" x="118.32675" y="238.22644" id="text45" transform="scale(0.94642865,1.0566037)"><tspan sodipodi:role="line" id="tspan45" style="stroke-width:0.871132" x="118.32675" y="238.22644">{u}</tspan></text><text xml:space="preserve" style="font-style:normal;font-variant:normal;font-weight:normal;font-stretch:normal;font-size:236.032px;font-family:Constantia;-inkscape-font-specification:Constantia;display:inline;fill:#ffffff;fill-opacity:1;fill-rule:evenodd;stroke:#ffffff;stroke-width:1.94922;stroke-dasharray:none;stroke-opacity:1" x="343.56" y="6.6908393" id="text47" transform="matrix(0.42860991,0.91325771,-0.88813627,0.44073338,0,0)"><tspan sodipodi:role="line" id="tspan47" style="font-size:236.032px;stroke-width:1.94922" x="343.56" y="6.6908393">,</tspan></text></svg>